<svg width="19" height="19" viewBox="0 0 21 21" fill="none" xmlns="http://www.w3.org/2000/svg">
<g clip-path="url(#clip0_763_132)">
<path fill-rule="evenodd" clip-rule="evenodd" d="M9.79766 1.72637C9.33701 1.72637 8.96359 2.0998 8.96359 2.56044V3.39452H12.2999V2.56044C12.2999 2.0998 11.9265 1.72637 11.4658 1.72637H9.79766ZM13.968 3.39452V2.56044C13.968 1.17851 12.8478 0.0582275 11.4658 0.0582275H9.79766C8.41573 0.0582275 7.29545 1.17851 7.29545 2.56044V3.39452H3.12509C2.66445 3.39452 2.29102 3.76795 2.29102 4.22859C2.29102 4.68923 2.66445 5.06266 3.12509 5.06266H3.21263L4.63345 17.8501C4.77426 19.1173 5.84536 20.076 7.12037 20.076H14.1431C15.4181 20.076 16.4893 19.1173 16.63 17.8501L18.0508 5.06266H18.1384C18.599 5.06266 18.9725 4.68923 18.9725 4.22859C18.9725 3.76795 18.599 3.39452 18.1384 3.39452H13.968ZM16.3724 5.06266H4.89103L6.29139 17.6658C6.33832 18.0883 6.69537 18.4078 7.12037 18.4078H14.1431C14.5681 18.4078 14.9251 18.0883 14.9721 17.6658L16.3724 5.06266ZM8.96359 7.56488C9.42425 7.56488 9.79766 7.9383 9.79766 8.39895V15.0715C9.79766 15.5322 9.42425 15.9056 8.96359 15.9056C8.50295 15.9056 8.12952 15.5322 8.12952 15.0715V8.39895C8.12952 7.9383 8.50295 7.56488 8.96359 7.56488ZM12.2999 7.56488C12.7605 7.56488 13.134 7.9383 13.134 8.39895V15.0715C13.134 15.5322 12.7605 15.9056 12.2999 15.9056C11.8392 15.9056 11.4658 15.5322 11.4658 15.0715V8.39895C11.4658 7.9383 11.8392 7.56488 12.2999 7.56488Z" fill="black" fill-opacity="0.5"/>
</g>
<defs>
<clipPath id="clip0_763_132">
<rect width="20" height="20" fill="white" transform="translate(0.622803 0.0582275)"/>
</clipPath>
</defs>
</svg>
