<svg width="17" height="17" viewBox="0 0 17 17" fill="none" xmlns="http://www.w3.org/2000/svg">
    <path d="M7.45113 3H2.43358C2.05337 3 1.68874 3.15218 1.41989 3.42307C1.15104 3.69395 1 4.06135 1 4.44444V14.5556C1 14.9386 1.15104 15.306 1.41989 15.5769C1.68874 15.8478 2.05337 16 2.43358 16H12.4687C12.8489 16 13.2135 15.8478 13.4824 15.5769C13.7512 15.306 13.9023 14.9386 13.9023 14.5556V9.5" stroke="black" stroke-opacity="0.6" stroke-width="2" stroke-linecap="round" stroke-linejoin="round"/>
    <path d="M13.0876 1.48399C13.3952 1.1741 13.8123 1 14.2473 1C14.6822 1 15.0994 1.1741 15.4069 1.48399C15.7145 1.79388 15.8873 2.21418 15.8873 2.65243C15.8873 3.09068 15.7145 3.51099 15.4069 3.82088L8.0624 11.221L4.96997 12L5.74308 8.88414L13.0876 1.48399Z" stroke="black" stroke-opacity="0.6" stroke-width="2" stroke-linecap="round" stroke-linejoin="round"/>
</svg>
