<svg width="20" height="20" viewBox="0 0 20 20" fill="none" xmlns="http://www.w3.org/2000/svg">
<path d="M9 3H3.55556C3.143 3 2.74733 3.17559 2.45561 3.48816C2.16389 3.80072 2 4.22464 2 4.66667V16.3333C2 16.7754 2.16389 17.1993 2.45561 17.5118C2.74733 17.8244 3.143 18 3.55556 18H14.4444C14.857 18 15.2527 17.8244 15.5444 17.5118C15.8361 17.1993 16 16.7754 16 16.3333V10.5" stroke="black" stroke-opacity="0.63" stroke-width="1.5" stroke-linecap="round" stroke-linejoin="round"/>
<path d="M15.6662 1.52798C16.0325 1.18992 16.5292 1 17.0471 1C17.5651 1 18.0618 1.18992 18.428 1.52798C18.7943 1.86605 19 2.32456 19 2.80265C19 3.28075 18.7943 3.73926 18.428 4.07732L9.68238 12.1502L6 13L6.92059 9.60088L15.6662 1.52798Z" stroke="black" stroke-opacity="0.63" stroke-width="1.5" stroke-linecap="round" stroke-linejoin="round"/>
</svg>
