<svg width="27" height="26" viewBox="0 0 27 26" fill="none" xmlns="http://www.w3.org/2000/svg">
<ellipse cx="13.5" cy="14" rx="13.5" ry="12" fill="#FD2626"/>
<path d="M12.102 1.73814C12.8202 0.845272 14.1798 0.845272 14.898 1.73814L15.0361 1.90985C15.3755 2.33185 15.9234 2.52696 16.4532 2.41442L18.7639 1.92351C19.4281 1.7824 19.8786 2.58093 19.4143 3.07647C19.0388 3.47727 19.2558 4.13477 19.7962 4.23332L19.9118 4.25441C20.741 4.40564 20.741 5.59436 19.9118 5.74559L19.7961 5.76668C19.2558 5.86523 19.0388 6.52273 19.4143 6.92353C19.8786 7.41907 19.4281 8.2176 18.7639 8.07649L16.4532 7.58558C15.9234 7.47304 15.3755 7.66815 15.0361 8.09015L14.898 8.26186C14.1798 9.15473 12.8202 9.15473 12.102 8.26186L11.9639 8.09015C11.6245 7.66815 11.0766 7.47304 10.5468 7.58558L8.23612 8.07649C7.57189 8.2176 7.12139 7.41907 7.58566 6.92353C7.96117 6.52273 7.74417 5.86523 7.20385 5.76668L7.08817 5.74559C6.25896 5.59436 6.25896 4.40564 7.08817 4.25441L7.20385 4.23332C7.74417 4.13477 7.96117 3.47727 7.58566 3.07647C7.12139 2.58093 7.57189 1.7824 8.23612 1.92351L10.5468 2.41442C11.0766 2.52696 11.6245 2.33185 11.9639 1.90986L12.102 1.73814Z" fill="#2F9B33"/>
</svg>
