<svg width="11" height="12" viewBox="0 0 11 12" fill="none" xmlns="http://www.w3.org/2000/svg">
<path d="M8.59911 2.86219C8.95204 5.22036 7.11885 7.23052 4.96761 6.84378C3.66524 6.60961 2.6146 5.45761 2.40089 4.02927C2.04827 1.6711 3.88146 -0.339065 6.03239 0.0480205C7.33476 0.282192 8.3854 1.43385 8.59911 2.86219ZM10.9779 11.1429L10.9615 11.0777C10.5659 9.50297 9.805 8.08527 8.77542 6.93361C8.65065 6.79373 8.43852 6.79852 8.31564 6.94012C7.48059 7.90149 6.21876 8.43566 4.85007 8.19635C4.00246 8.04824 3.24442 7.59052 2.67997 6.93943C2.55835 6.79886 2.34652 6.79715 2.22238 6.93567C1.19375 8.08698 0.433814 9.50435 0.0381361 11.0777L0.0221094 11.1429C-0.0866313 11.5755 0.219478 12 0.639984 12H10.36C10.7805 12 11.0866 11.5755 10.9779 11.1429Z" fill="#1D1D1B" fill-opacity="0.22"/>
</svg>
